# xmcd
#
# Track frame offsets: 
#        150
#        15552
#        35325
#        52812
#        71182
#        90527
#        105250
#        122570
#        136787
#        154100
#
# Disc length: 2317 seconds
#
# Revision: 0
# Processed by: cddbd v1.5.1PL2 Copyright (c) Steve Scherf et al.
# Submitted via: ExactAudioCopy v0.95b4
#
DISCID=71090b0a
DTITLE=บอส บวร  - อกหักพักงาน
DYEAR=1900
DGENRE=Country
TTITLE0=อาจารย์ใบ้หวย
TTITLE1=ตัวกินไก่
TTITLE2=อกหักพักงาน
TTITLE3=ฝากใจใส่พาขวัญ
TTITLE4=สงสารยุพา
TTITLE5=สิงห์แว่นดำ
TTITLE6=เต่างอยคอยน้อง
TTITLE7=กินกองกันบ่
TTITLE8=ปลอบใจเพื่อน
TTITLE9=ฝรั่งดั้งหัก
EXTD=
EXTT0=
EXTT1=
EXTT2=
EXTT3=
EXTT4=
EXTT5=
EXTT6=
EXTT7=
EXTT8=
EXTT9=
PLAYORDER=
